<svg id="SvgjsSvg1006" width="914" height="661" xmlns="http://www.w3.org/2000/svg" version="1.1" xmlns:xlink="http://www.w3.org/1999/xlink" xmlns:svgjs="http://svgjs.com/svgjs"><defs id="SvgjsDefs1007"><marker id="SvgjsMarker1034" markerWidth="14" markerHeight="10" refX="10" refY="5" viewBox="0 0 14 10" orient="auto" markerUnits="userSpaceOnUse" stroke-dasharray="0,0"><path id="SvgjsPath1035" d="M0,0 L14,5 L0,10 L0,0" fill="#323232" stroke="#323232" stroke-width="1"></path></marker><marker id="SvgjsMarker1038" markerWidth="14" markerHeight="10" refX="10" refY="5" viewBox="0 0 14 10" orient="auto" markerUnits="userSpaceOnUse" stroke-dasharray="0,0"><path id="SvgjsPath1039" d="M0,0 L14,5 L0,10 L0,0" fill="#323232" stroke="#323232" stroke-width="1"></path></marker><marker id="SvgjsMarker1042" markerWidth="14" markerHeight="10" refX="10" refY="5" viewBox="0 0 14 10" orient="auto" markerUnits="userSpaceOnUse" stroke-dasharray="0,0"><path id="SvgjsPath1043" d="M0,0 L14,5 L0,10 L0,0" fill="#323232" stroke="#323232" stroke-width="1"></path></marker><marker id="SvgjsMarker1060" markerWidth="14" markerHeight="10" refX="10" refY="5" viewBox="0 0 14 10" orient="auto" markerUnits="userSpaceOnUse" stroke-dasharray="0,0"><path id="SvgjsPath1061" d="M0,0 L14,5 L0,10 L0,0" fill="#323232" stroke="#323232" stroke-width="1"></path></marker><marker id="SvgjsMarker1064" markerWidth="14" markerHeight="10" refX="10" refY="5" viewBox="0 0 14 10" orient="auto" markerUnits="userSpaceOnUse" stroke-dasharray="0,0"><path id="SvgjsPath1065" d="M0,0 L14,5 L0,10 L0,0" fill="#323232" stroke="#323232" stroke-width="1"></path></marker><marker id="SvgjsMarker1074" markerWidth="14" markerHeight="10" refX="10" refY="5" viewBox="0 0 14 10" orient="auto" markerUnits="userSpaceOnUse" stroke-dasharray="0,0"><path id="SvgjsPath1075" d="M0,0 L14,5 L0,10 L0,0" fill="#323232" stroke="#323232" stroke-width="1"></path></marker><marker id="SvgjsMarker1078" markerWidth="14" markerHeight="10" refX="10" refY="5" viewBox="0 0 14 10" orient="auto" markerUnits="userSpaceOnUse" stroke-dasharray="0,0"><path id="SvgjsPath1079" d="M0,0 L14,5 L0,10 L0,0" fill="#323232" stroke="#323232" stroke-width="1"></path></marker><marker id="SvgjsMarker1088" markerWidth="14" markerHeight="10" refX="10" refY="5" viewBox="0 0 14 10" orient="auto" markerUnits="userSpaceOnUse" stroke-dasharray="0,0"><path id="SvgjsPath1089" d="M0,0 L14,5 L0,10 L0,0" fill="#323232" stroke="#323232" stroke-width="1"></path></marker><marker id="SvgjsMarker1092" markerWidth="14" markerHeight="10" refX="10" refY="5" viewBox="0 0 14 10" orient="auto" markerUnits="userSpaceOnUse" stroke-dasharray="0,0"><path id="SvgjsPath1093" d="M0,0 L14,5 L0,10 L0,0" fill="#323232" stroke="#323232" stroke-width="1"></path></marker><marker id="SvgjsMarker1102" markerWidth="14" markerHeight="10" refX="10" refY="5" viewBox="0 0 14 10" orient="auto" markerUnits="userSpaceOnUse" stroke-dasharray="0,0"><path id="SvgjsPath1103" d="M0,0 L14,5 L0,10 L0,0" fill="#323232" stroke="#323232" stroke-width="1"></path></marker><marker id="SvgjsMarker1106" markerWidth="14" markerHeight="10" refX="10" refY="5" viewBox="0 0 14 10" orient="auto" markerUnits="userSpaceOnUse" stroke-dasharray="0,0"><path id="SvgjsPath1107" d="M0,0 L14,5 L0,10 L0,0" fill="#323232" stroke="#323232" stroke-width="1"></path></marker><marker id="SvgjsMarker1116" markerWidth="14" markerHeight="10" refX="10" refY="5" viewBox="0 0 14 10" orient="auto" markerUnits="userSpaceOnUse" stroke-dasharray="0,0"><path id="SvgjsPath1117" d="M0,0 L14,5 L0,10 L0,0" fill="#323232" stroke="#323232" stroke-width="1"></path></marker></defs><g id="SvgjsG1008" transform="translate(517.7286931818192,580.0099431818182)"><path id="SvgjsPath1009" d="M 0 4Q 0 0 4 0L 119.63636363636374 0Q 123.63636363636374 0 123.63636363636374 4L 123.63636363636374 51.90909090909088Q 123.63636363636374 55.90909090909088 119.63636363636374 55.90909090909088L 4 55.90909090909088Q 0 55.90909090909088 0 51.90909090909088Z" stroke="rgba(50,50,50,1)" stroke-width="2" fill-opacity="1" fill="#ffffff"></path><g id="SvgjsG1010"><text id="SvgjsText1011" font-family="&quot;Times New Roman&quot;" text-anchor="middle" font-size="18px" width="104px" fill="#323232" font-weight="700" align="middle" lineHeight="125%" anchor="middle" family="&quot;Times New Roman&quot;" size="18px" weight="700" font-style="" opacity="1" y="12.204545454545439" transform="rotate(0)"><tspan id="SvgjsTspan1012" dy="22" x="62"><tspan id="SvgjsTspan1013" style="text-decoration:;">input</tspan></tspan></text></g></g><g id="SvgjsG1014" transform="translate(517.7286931818192,454.55539772727275)"><path id="SvgjsPath1015" d="M 0 4Q 0 0 4 0L 119.63636363636351 0Q 123.63636363636351 0 123.63636363636351 4L 123.63636363636351 59.181818181818244Q 123.63636363636351 63.181818181818244 119.63636363636351 63.181818181818244L 4 63.181818181818244Q 0 63.181818181818244 0 59.181818181818244Z" stroke="rgba(50,50,50,1)" stroke-width="2" fill-opacity="1" fill="#ffffff"></path><g id="SvgjsG1016"><text id="SvgjsText1017" font-family="&quot;Times New Roman&quot;" text-anchor="middle" font-size="18px" width="104px" fill="#323232" font-weight="700" align="middle" lineHeight="125%" anchor="middle" family="&quot;Times New Roman&quot;" size="18px" weight="700" font-style="" opacity="1" y="15.840909090909122" transform="rotate(0)"><tspan id="SvgjsTspan1018" dy="22" x="62"><tspan id="SvgjsTspan1019" style="text-decoration:;">1 × 1 conv, K</tspan></tspan></text></g></g><g id="SvgjsG1020" transform="translate(765.0014204545473,454.55539772727286)"><path id="SvgjsPath1021" d="M 0 4Q 0 0 4 0L 119.63636363636351 0Q 123.63636363636351 0 123.63636363636351 4L 123.63636363636351 59.181818181818244Q 123.63636363636351 63.181818181818244 119.63636363636351 63.181818181818244L 4 63.181818181818244Q 0 63.181818181818244 0 59.181818181818244Z" stroke="rgba(50,50,50,1)" stroke-width="2" fill-opacity="1" fill="#ffffff"></path><g id="SvgjsG1022"><text id="SvgjsText1023" font-family="&quot;Times New Roman&quot;" text-anchor="middle" font-size="18px" width="104px" fill="#323232" font-weight="700" align="middle" lineHeight="125%" anchor="middle" family="&quot;Times New Roman&quot;" size="18px" weight="700" font-style="" opacity="1" y="15.840909090909122" transform="rotate(0)"><tspan id="SvgjsTspan1024" dy="22" x="62"><tspan id="SvgjsTspan1025" style="text-decoration:;">1 × 1 conv, V</tspan></tspan></text></g></g><g id="SvgjsG1026" transform="translate(270.45596590908997,454.5553977272732)"><path id="SvgjsPath1027" d="M 0 4Q 0 0 4 0L 119.63636363636351 0Q 123.63636363636351 0 123.63636363636351 4L 123.63636363636351 59.181818181818244Q 123.63636363636351 63.181818181818244 119.63636363636351 63.181818181818244L 4 63.181818181818244Q 0 63.181818181818244 0 59.181818181818244Z" stroke="rgba(50,50,50,1)" stroke-width="2" fill-opacity="1" fill="#ffffff"></path><g id="SvgjsG1028"><text id="SvgjsText1029" font-family="&quot;Times New Roman&quot;" text-anchor="middle" font-size="18px" width="104px" fill="#323232" font-weight="700" align="middle" lineHeight="125%" anchor="middle" family="&quot;Times New Roman&quot;" size="18px" weight="700" font-style="" opacity="1" y="15.840909090909122" transform="rotate(0)"><tspan id="SvgjsTspan1030" dy="22" x="62"><tspan id="SvgjsTspan1031" style="text-decoration:;">1 × 1 conv, Q</tspan></tspan></text></g></g><g id="SvgjsG1032"><path id="SvgjsPath1033" d="M579.5468750000009 579.0099431818182L579.5468750000009 548.8735795454548L332.2741477272732 548.8735795454548L332.2741477272732 521.3372159090915" stroke="#323232" stroke-width="2" fill="none" marker-end="url(#SvgjsMarker1034)"></path></g><g id="SvgjsG1036"><path id="SvgjsPath1037" d="M579.5468750000009 579.0099431818182L579.5468750000009 548.8735795454546L579.5468750000009 548.8735795454546L579.5468750000009 521.337215909091" stroke="#323232" stroke-width="2" fill="none" marker-end="url(#SvgjsMarker1038)"></path></g><g id="SvgjsG1040"><path id="SvgjsPath1041" d="M579.5468750000009 579.0099431818182L579.5468750000009 548.8735795454547L826.8196022727291 548.8735795454547L826.8196022727291 521.3372159090911" stroke="#323232" stroke-width="2" fill="none" marker-end="url(#SvgjsMarker1042)"></path></g><g id="SvgjsG1044" transform="translate(25.001420454542654,454.5553977272732)"><path id="SvgjsPath1045" d="M 0 4Q 0 0 4 0L 117.81818181818176 0Q 121.81818181818176 0 121.81818181818176 4L 121.81818181818176 52.77272727272691Q 121.81818181818176 56.77272727272691 117.81818181818176 56.77272727272691L 4 56.77272727272691Q 0 56.77272727272691 0 52.77272727272691Z" stroke="rgba(50,50,50,1)" stroke-width="2" fill-opacity="1" fill="#ffffff"></path><g id="SvgjsG1046"><text id="SvgjsText1047" font-family="&quot;Times New Roman&quot;" text-anchor="middle" font-size="18px" width="102px" fill="#323232" font-weight="700" align="middle" lineHeight="125%" anchor="middle" family="&quot;Times New Roman&quot;" size="18px" weight="700" font-style="" opacity="1" y="1.6363636363634555" transform="rotate(0)"><tspan id="SvgjsTspan1048" dy="22" x="61"><tspan id="SvgjsTspan1049" style="text-decoration:;">Positional </tspan></tspan><tspan id="SvgjsTspan1050" dy="22" x="61"><tspan id="SvgjsTspan1051" style="text-decoration:;">embedding</tspan></tspan></text></g></g><g id="SvgjsG1052" transform="translate(146.8196022727244,329.10085227272725)"><path id="SvgjsPath1053" d="M 0 4Q 0 0 4 0L 119.63636363636556 0Q 123.63636363636556 0 123.63636363636556 4L 123.63636363636556 49.121212121211784Q 123.63636363636556 53.121212121211784 119.63636363636556 53.121212121211784L 4 53.121212121211784Q 0 53.121212121211784 0 49.121212121211784Z" stroke="rgba(50,50,50,1)" stroke-width="2" fill-opacity="1" fill="#ffffff"></path><g id="SvgjsG1054"><text id="SvgjsText1055" font-family="&quot;Times New Roman&quot;" text-anchor="middle" font-size="18px" width="104px" fill="#323232" font-weight="700" align="middle" lineHeight="125%" anchor="middle" family="&quot;Times New Roman&quot;" size="18px" weight="700" font-style="" opacity="1" y="10.810606060605892" transform="rotate(0)"><tspan id="SvgjsTspan1056" dy="22" x="62"><tspan id="SvgjsTspan1057" style="text-decoration:;">Matmul</tspan></tspan></text></g></g><g id="SvgjsG1058"><path id="SvgjsPath1059" d="M85.91051136363353 453.5553977272732L85.91051136363353 355.66145833333314L143.2196022727244 355.66145833333314" stroke="#323232" stroke-width="2" fill="none" marker-end="url(#SvgjsMarker1060)"></path></g><g id="SvgjsG1062"><path id="SvgjsPath1063" d="M332.2741477272716 453.5553977272732L332.2741477272716 355.66145833333314L274.05596590909 355.66145833333314" stroke="#323232" stroke-width="2" fill="none" marker-end="url(#SvgjsMarker1064)"></path></g><g id="SvgjsG1066" transform="translate(394.0923295454529,329.10085227272725)"><path id="SvgjsPath1067" d="M 0 4Q 0 0 4 0L 119.63636363636556 0Q 123.63636363636556 0 123.63636363636556 4L 123.63636363636556 49.121212121211784Q 123.63636363636556 53.121212121211784 119.63636363636556 53.121212121211784L 4 53.121212121211784Q 0 53.121212121211784 0 49.121212121211784Z" stroke="rgba(50,50,50,1)" stroke-width="2" fill-opacity="1" fill="#ffffff"></path><g id="SvgjsG1068"><text id="SvgjsText1069" font-family="&quot;Times New Roman&quot;" text-anchor="middle" font-size="18px" width="104px" fill="#323232" font-weight="700" align="middle" lineHeight="125%" anchor="middle" family="&quot;Times New Roman&quot;" size="18px" weight="700" font-style="" opacity="1" y="10.810606060605892" transform="rotate(0)"><tspan id="SvgjsTspan1070" dy="22" x="62"><tspan id="SvgjsTspan1071" style="text-decoration:;">Matmul</tspan></tspan></text></g></g><g id="SvgjsG1072"><path id="SvgjsPath1073" d="M579.5468750000009 453.55539772727275L579.5468750000009 355.66145833333314L521.3286931818184 355.66145833333314" stroke="#323232" stroke-width="2" fill="none" marker-end="url(#SvgjsMarker1074)"></path></g><g id="SvgjsG1076"><path id="SvgjsPath1077" d="M332.2741477272716 453.5553977272732L332.2741477272716 355.66145833333314L390.492329545453 355.66145833333314" stroke="#323232" stroke-width="2" fill="none" marker-end="url(#SvgjsMarker1078)"></path></g><g id="SvgjsG1080" transform="translate(270.4559659090903,207.28267045454544)"><path id="SvgjsPath1081" d="M 0 4Q 0 0 4 0L 119.6363636363626 0Q 123.6363636363626 0 123.6363636363626 4L 123.6363636363626 52.81818181818181Q 123.6363636363626 56.81818181818181 119.6363636363626 56.81818181818181L 4 56.81818181818181Q 0 56.81818181818181 0 52.81818181818181Z" stroke="rgba(50,50,50,1)" stroke-width="2" fill-opacity="1" fill="#ffffff"></path><g id="SvgjsG1082"><text id="SvgjsText1083" font-family="&quot;Times New Roman&quot;" text-anchor="middle" font-size="18px" width="104px" fill="#323232" font-weight="700" align="middle" lineHeight="125%" anchor="middle" family="&quot;Times New Roman&quot;" size="18px" weight="700" font-style="" opacity="1" y="12.659090909090907" transform="rotate(0)"><tspan id="SvgjsTspan1084" dy="22" x="62"><tspan id="SvgjsTspan1085" style="text-decoration:;">Add</tspan></tspan></text></g></g><g id="SvgjsG1086"><path id="SvgjsPath1087" d="M208.6377840909072 328.10085227272725L208.6377840909072 235.69176136363637L266.8559659090903 235.69176136363637" stroke="#323232" stroke-width="2" fill="none" marker-end="url(#SvgjsMarker1088)"></path></g><g id="SvgjsG1090"><path id="SvgjsPath1091" d="M455.9105113636356 328.10085227272725L455.9105113636356 235.69176136363637L397.6923295454528 235.69176136363637" stroke="#323232" stroke-width="2" fill="none" marker-end="url(#SvgjsMarker1092)"></path></g><g id="SvgjsG1094" transform="translate(517.7286931818185,78.26751893939411)"><path id="SvgjsPath1095" d="M 0 4Q 0 0 4 0L 119.63636363636556 0Q 123.63636363636556 0 123.63636363636556 4L 123.63636363636556 49.121212121211784Q 123.63636363636556 53.121212121211784 119.63636363636556 53.121212121211784L 4 53.121212121211784Q 0 53.121212121211784 0 49.121212121211784Z" stroke="rgba(50,50,50,1)" stroke-width="2" fill-opacity="1" fill="#ffffff"></path><g id="SvgjsG1096"><text id="SvgjsText1097" font-family="&quot;Times New Roman&quot;" text-anchor="middle" font-size="18px" width="104px" fill="#323232" font-weight="700" align="middle" lineHeight="125%" anchor="middle" family="&quot;Times New Roman&quot;" size="18px" weight="700" font-style="" opacity="1" y="10.810606060605892" transform="rotate(0)"><tspan id="SvgjsTspan1098" dy="22" x="62"><tspan id="SvgjsTspan1099" style="text-decoration:;">Matmul</tspan></tspan></text></g></g><g id="SvgjsG1100"><path id="SvgjsPath1101" d="M332.2741477272716 206.28267045454544L332.2741477272716 104.828125L514.1286931818186 104.828125" stroke="#323232" stroke-width="2" fill="none" marker-end="url(#SvgjsMarker1102)"></path></g><g id="SvgjsG1104"><path id="SvgjsPath1105" d="M826.8196022727291 453.55539772727286L826.8196022727291 104.828125L644.9650568181839 104.828125" stroke="#323232" stroke-width="2" fill="none" marker-end="url(#SvgjsMarker1106)"></path></g><g id="SvgjsG1108" transform="translate(316.81960227272566,144.60085227272737)"><path id="SvgjsPath1109" d="M 0 0L 139 0L 139 20L 0 20Z" stroke="none" fill="none"></path><g id="SvgjsG1110"><text id="SvgjsText1111" font-family="&quot;Times New Roman&quot;" text-anchor="middle" font-size="18px" width="139px" fill="#323232" font-weight="700" align="middle" lineHeight="125%" anchor="middle" family="&quot;Times New Roman&quot;" size="18px" weight="700" font-style="" opacity="1" y="-5.75" transform="rotate(0)"><tspan id="SvgjsTspan1112" dy="22" x="69.5"><tspan id="SvgjsTspan1113" style="text-decoration:;">Softmax</tspan></tspan></text></g></g><g id="SvgjsG1114"><path id="SvgjsPath1115" d="M579.5468750000014 77.26751893939411L579.5468750000014 51.63873106060612L579.5468750000014 51.63873106060612L579.5468750000014 25.00994318181816" stroke="#323232" stroke-width="2" fill="none" marker-end="url(#SvgjsMarker1116)"></path></g></svg>